<?xml version="1.0" encoding="utf-8"?>
<!-- Generator: Adobe Illustrator 26.0.1, SVG Export Plug-In . SVG Version: 6.00 Build 0)  -->
<svg version="1.1" id="Layer_1" xmlns="http://www.w3.org/2000/svg" xmlns:xlink="http://www.w3.org/1999/xlink" x="0px" y="0px"
	 viewBox="0 0 326.21 326.3" style="enable-background:new 0 0 326.21 326.3;" xml:space="preserve">
<style type="text/css">
	.st0{fill:#FFFFFF;}
</style>
<g>
	<g>
		<path class="st0" d="M153.53,0c6.37,0,12.74,0,19.12,0c0.82,0.18,1.63,0.47,2.46,0.52c25.52,1.8,49.39,9.1,71.17,22.45
			c42.26,25.9,68.27,63.24,77.4,112.08c1.14,6.11,1.71,12.34,2.54,18.51c0,6.37,0,12.74,0,19.12c-0.2,1.13-0.42,2.25-0.59,3.38
			c-1.02,7.02-1.6,14.14-3.11,21.06c-8.52,39.17-28.63,71.28-60.54,95.45c-39.69,30.07-84.39,40.05-133.14,29.88
			c-39.01-8.14-70.73-28.58-95-60.13c-26.2-34.06-37.1-72.84-33-115.52c3.32-34.58,16.75-65.12,39.79-91.19
			C65.89,27.03,97.36,9.23,134.98,2.54C141.12,1.45,147.34,0.83,153.53,0z M138.16,190.47c-6.49-5.93-12.41-11.38-18.36-16.79
			c-9.03-8.22-17.86-16.66-27.18-24.54c-7.24-6.12-18.53-3.78-23.23,4.2c-4.14,7.03-2.54,15.4,4.16,21.52
			c17.49,15.95,35.01,31.89,52.51,47.83c8.66,7.89,17.14,7.72,25.47-0.55c33.54-33.28,67.07-66.57,100.6-99.86
			c1.05-1.05,2.11-2.1,3.06-3.24c6.68-7.99,4.48-19.76-4.62-24.85c-7.02-3.93-14.39-2.52-20.99,4.08
			c-29.74,29.72-59.47,59.46-89.18,89.2C139.57,188.29,138.99,189.33,138.16,190.47z"/>
	</g>
</g>
</svg>
